Coordinates
version=1
nRows=4
nColumns=63
inDegrees=yes

Units are S.I. units (second, meters, Newtons, ...)
If the header above contains a line with 'inDegrees', this indicates whether rotational values are in degrees (yes) or radians (no).

endheader
time	pelvis_tilt	pelvis_list	pelvis_rotation	pelvis_tx	pelvis_ty	pelvis_tz	hip_flexion_r	hip_adduction_r	hip_rotation_r	knee_angle_r	knee_angle_r_beta	ankle_angle_r	subtalar_angle_r	mtp_angle_r	hip_flexion_l	hip_adduction_l	hip_rotation_l	knee_angle_l	knee_angle_l_beta	ankle_angle_l	subtalar_angle_l	mtp_angle_l	L5_S1_Flex_Ext	L5_S1_Lat_Bending	L5_S1_axial_rotation	L4_L5_Flex_Ext	L4_L5_Lat_Bending	L4_L5_axial_rotation	L3_L4_Flex_Ext	L3_L4_Lat_Bending	L3_L4_axial_rotation	L2_L3_Flex_Ext	L2_L3_Lat_Bending	L2_L3_axial_rotation	L1_L2_Flex_Ext	L1_L2_Lat_Bending	L1_L2_axial_rotation	L1_T12_Flex_Ext	L1_T12_Lat_Bending	L1_T12_axial_rotation	Abs_r3	Abs_r2	Abs_r1	Abs_t1	Abs_t2	neck_flexion	neck_bending	neck_rotation	arm_flex_r	arm_add_r	arm_rot_r	elbow_flex_r	pro_sup_r	wrist_flex_r	wrist_dev_r	arm_flex_l	arm_add_l	arm_rot_l	elbow_flex_l	pro_sup_l	wrist_flex_l	wrist_dev_l
      3.10000000	      3.81894068	      0.47227461	     95.44807635	      0.18585036	      0.74825617	      0.82475829	     12.26440744	      1.76033714	     -0.11577026	     16.13945535	      0.28168664	     36.41362993	     -1.79783513	      0.00000000	      8.59492851	     -2.02878926	    -11.79957336	     12.61080820	      0.22010012	     37.34430388	     12.25567596	      0.00000000	      0.07240321	     -0.10535678	      2.33894083	      0.13446001	     -0.14012452	      2.48512463	      0.11895124	     -0.25616448	      2.48512463	      0.08274963	     -0.25616448	      2.04657322	      0.06723362	     -0.21484355	      1.90038942	      0.04137120	     -0.16319765	      1.75420562	      0.51716891	     -1.19181698	     13.00848719	      0.00000000	      0.00000000	     23.78228620	     -0.61033356	     -8.65775297	    -13.94366467	    -14.11627948	      7.66301621	    101.00307626	     89.30128580	     -1.33788879	     -1.13547515	      8.09737853	    -14.86320897	     38.88442909	     58.86420583	     75.46669029	     -5.71649845	      1.05439165
      3.12000000	      3.83589079	      0.39773969	     95.36916670	      0.18546865	      0.74844539	      0.82426036	     12.44935277	      1.80569726	      0.11609716	     16.23353010	      0.28332855	     36.65082461	     -1.76259310	      0.00000000	      8.64482732	     -2.01857903	    -11.92780085	     12.61384008	      0.22015304	     37.26375467	     12.16651481	      0.00000000	      0.04526634	     -0.03989612	      2.22081411	      0.08406411	     -0.05306183	      2.35961499	      0.07436806	     -0.09700342	      2.35961499	      0.05173489	     -0.09700342	      1.94321235	      0.04203432	     -0.08135616	      1.80441146	      0.02586518	     -0.06179908	      1.66561058	      0.32333291	     -0.45131284	     12.35150183	      0.00000000	      0.00000000	     23.88549255	     -0.06614324	     -8.67566424	    -14.13057869	    -14.13245917	      8.20279720	    101.28611827	     89.27251978	     -1.21897778	     -1.10945586	      8.00552549	    -14.90222772	     38.86774024	     58.78299693	     75.45935254	     -5.68397464	      0.98892641
      3.14000000	      4.25177430	      0.39315536	     96.16841622	      0.18415844	      0.74852540	      0.82390850	     12.49779667	      2.21662880	      0.13087334	     16.21021825	      0.28292168	     36.56753364	     -2.98744817	      0.00000000	      8.93815445	     -2.39576275	    -11.24851387	     12.97526992	      0.22646118	     37.52914722	     12.51134944	      0.00000000	      0.03159552	      0.06837028	      1.74093965	      0.05867604	      0.09093247	      1.84974838	      0.05190828	      0.16623550	      1.84974838	      0.03611052	      0.16623550	      1.52332220	      0.02933960	      0.13942068	      1.41451347	      0.01805368	      0.10590556	      1.30570474	      0.22568362	      0.77341828	      9.68258407	      0.00000000	      0.00000000	     24.14564684	      2.46127412	     -5.82653697	    -12.82604026	    -14.87145492	     10.17723526	    101.17222518	     89.19233020	     -1.48100324	      0.64249263	      6.63475913	    -14.77628359	     36.60504994	     58.97478927	     75.37327221	     -5.42797434	     -0.29999609
      3.16000000	      4.41389731	      0.45075975	     96.22532529	      0.18369200	      0.74858753	      0.82325505	     12.60367079	      2.43833693	      0.34242314	     16.48693334	      0.28775127	     36.80071535	     -3.43505179	      0.00000000	      8.92793667	     -2.56169353	    -11.17258032	     13.10623559	      0.22874696	     37.69277089	     12.50792230	      0.00000000	      0.02337223	      0.13046614	      1.60405369	      0.04340457	      0.17351997	      1.70430705	      0.03839823	      0.31721537	      1.70430705	      0.02671212	      0.31721537	      1.40354698	      0.02170345	      0.26604655	      1.30329363	      0.01335489	      0.20209205	      1.20304027	      0.16694549	      1.47585907	      8.92126542	      0.00000000	      0.00000000	     24.17246882	      3.37406525	     -5.65764756	    -12.21574948	    -14.95532556	     10.62331633	    101.09050374	     89.13370934	     -1.80890452	      1.53226517	      6.15040602	    -14.65375305	     35.89238672	     58.99590769	     75.47420981	     -5.28094178	     -0.76834358
